<?xml version="1.0" encoding="utf-8"?>
<!-- Generator: Adobe Illustrator 19.2.1, SVG Export Plug-In . SVG Version: 6.00 Build 0)  -->
<svg version="1.1" id="Layer_1" xmlns="http://www.w3.org/2000/svg" xmlns:xlink="http://www.w3.org/1999/xlink" x="0px" y="0px"
	 viewBox="0 0 500 500" style="enable-background:new 0 0 500 500;" xml:space="preserve">
<style type="text/css">
	.st0{fill:#00AEEF;}
	.st1{fill:none;}
	.st2{font-family:'SourceSansPro-BoldIt';}
	.st3{font-size:142px;}
	.st4{font-size:173px;}
</style>
<polyline points="0,50.9 50.9,0 0,0 "/>
<polyline points="500.6,449.1 449.6,500 500.6,500 "/>
<g>
	<path d="M449.1,30c11.5,0,20.9,9.4,20.9,20.9v398.1c0,11.5-9.4,20.9-20.9,20.9H50.9c-11.5,0-20.9-9.4-20.9-20.9V50.9
		C30,39.4,39.4,30,50.9,30H449.1 M449.1,0H50.9C22.8,0,0,22.8,0,50.9v398.1C0,477.2,22.8,500,50.9,500h398.1
		c28.1,0,50.9-22.8,50.9-50.9V50.9C500,22.8,477.2,0,449.1,0L449.1,0z"/>
</g>
<polygon class="st0" points="500,265.3 0,447.3 0,500 273.3,500 500,417.5 "/>
<polygon class="st0" points="0,419.5 500,237.5 500,85.3 0,267.3 "/>
<polygon class="st0" points="0,239.5 500,57.5 500,0 239.9,0 0,87.3 "/>
<rect x="-26.2" y="62.3" transform="matrix(0.9397 -0.342 0.342 0.9397 -33.9053 65.1104)" class="st1" width="387.7" height="132.8"/>
<text transform="matrix(0.9397 -0.342 0.342 0.9397 52.7828 205.782)" class="st2 st3">MKA</text>
<rect x="41.3" y="187" transform="matrix(0.9397 -0.342 0.342 0.9397 -71.5329 101.1557)" class="st1" width="419.5" height="132.8"/>
<text transform="matrix(0.9397 -0.342 0.342 0.9397 80.6152 373.8509)" class="st2 st4">STEM</text>
<rect x="91.5" y="346.6" transform="matrix(0.9397 -0.342 0.342 0.9397 -122.9787 128.6372)" class="st1" width="423.5" height="132.8"/>
<text transform="matrix(0.9397 -0.342 0.342 0.9397 158.0278 501.175)" class="st2 st3">TEAM</text>
</svg>
